HIERARCHY
ROOT Hips
{
    OFFSET 0.000000 0.000000 0.000000
    CHANNELS 6 Xposition Yposition Zposition Zrotation Xrotation Yrotation
    JOINT Spine
    {
        OFFSET 0.000002 7.164412 0.000002
        CHANNELS 3 Zrotation Xrotation Yrotation
        JOINT Spine1
        {
            OFFSET -0.000001 20.126801 -0.000002
            CHANNELS 3 Zrotation Xrotation Yrotation
            JOINT Neck
            {
                OFFSET 0.000000 21.094069 0.000000
                CHANNELS 3 Zrotation Xrotation Yrotation
                JOINT Head
                {
                    OFFSET -0.000001 12.838277 1.776080
                    CHANNELS 3 Zrotation Xrotation Yrotation
                    End Site
                    {
                        OFFSET 0.000000 17.760757 0.000000
                    }
                }
            }
            JOINT LeftShoulder
            {
                OFFSET 3.550527 15.465700 -0.908803
                CHANNELS 3 Zrotation Xrotation Yrotation
                JOINT LeftArm
                {
                    OFFSET 12.513296 -0.000006 -0.000002
                    CHANNELS 3 Zrotation Xrotation Yrotation
                    JOINT LeftForeArm
                    {
                        OFFSET 24.225996 -0.000003 0.000001
                        CHANNELS 3 Zrotation Xrotation Yrotation
                        JOINT LeftHand
                        {
                            OFFSET 20.711399 -0.000005 -0.000004
                            CHANNELS 3 Zrotation Xrotation Yrotation
                            JOINT LeftHandThumb1
                            {
                                OFFSET 2.121969 -2.411331 3.375859
                                CHANNELS 3 Zrotation Xrotation Yrotation
                                JOINT LeftHandThumb2
                                {
                                    OFFSET 2.803208 0.000003 0.000001
                                    CHANNELS 3 Zrotation Xrotation Yrotation
                                    JOINT LeftHandThumb3
                                    {
                                        OFFSET 2.395929 0.000004 -0.000003
                                        CHANNELS 3 Zrotation Xrotation Yrotation
                                        End Site
                                        {
                                            OFFSET 2.127676 0.000000 0.000000
                                        }
                                    }
                                }
                            }
                            JOINT LeftHandIndex1
                            {
                                OFFSET 8.680775 0.000005 3.375860
                                CHANNELS 3 Zrotation Xrotation Yrotation
                                JOINT LeftHandIndex2
                                {
                                    OFFSET 4.218178 -0.000000 -0.000000
                                    CHANNELS 3 Zrotation Xrotation Yrotation
                                    JOINT LeftHandIndex3
                                    {
                                        OFFSET 2.109086 -0.000004 0.000002
                                        CHANNELS 3 Zrotation Xrotation Yrotation
                                        End Site
                                        {
                                            OFFSET 1.872952 0.000000 0.000000
                                        }
                                    }
                                }
                            }
                            JOINT LeftHandMiddle1
                            {
                                OFFSET 8.680778 -0.000002 1.118860
                                CHANNELS 3 Zrotation Xrotation Yrotation
                                JOINT LeftHandMiddle2
                                {
                                    OFFSET 4.640003 -0.000004 -0.000001
                                    CHANNELS 3 Zrotation Xrotation Yrotation
                                    JOINT LeftHandMiddle3
                                    {
                                        OFFSET 2.530911 0.000002 -0.000001
                                        CHANNELS 3 Zrotation Xrotation Yrotation
                                        End Site
                                        {
                                            OFFSET 2.247544 0.000000 0.000000
                                        }
                                    }
                                }
                            }
                            JOINT LeftHandRing1
                            {
                                OFFSET 8.198517 0.000004 -1.118860
                                CHANNELS 3 Zrotation Xrotation Yrotation
                                JOINT LeftHandRing2
                                {
                                    OFFSET 4.218183 -0.000002 -0.000002
                                    CHANNELS 3 Zrotation Xrotation Yrotation
                                    JOINT LeftHandRing3
                                    {
                                        OFFSET 2.109094 0.000005 -0.000000
                                        CHANNELS 3 Zrotation Xrotation Yrotation
                                        End Site
                                        {
                                            OFFSET 1.872952 0.000000 0.000000
                                        }
                                    }
                                }
                            }
                            JOINT LeftHandPinky1
                            {
                                OFFSET 7.716254 0.000002 -3.375863
                                CHANNELS 3 Zrotation Xrotation Yrotation
                                JOINT LeftHandPinky2
                                {
                                    OFFSET 3.374536 0.000002 0.000001
                                    CHANNELS 3 Zrotation Xrotation Yrotation
                                    JOINT LeftHandPinky3
                                    {
                                        OFFSET 1.687274 -0.000002 -0.000004
                                        CHANNELS 3 Zrotation Xrotation Yrotation
                                        End Site
                                        {
                                            OFFSET 1.498360 0.000000 0.000000
                                        }
                                    }
                                }
                            }
                        }
                    }
                }
            }
            JOINT RightShoulder
            {
                OFFSET -3.550529 15.465699 -0.908801
                CHANNELS 3 Zrotation Xrotation Yrotation
                JOINT RightArm
                {
                    OFFSET -12.513299 -0.000001 -0.000000
                    CHANNELS 3 Zrotation Xrotation Yrotation
                    JOINT RightForeArm
                    {
                        OFFSET -24.226000 -0.000003 -0.000001
                        CHANNELS 3 Zrotation Xrotation Yrotation
                        JOINT RightHand
                        {
                            OFFSET -20.711397 -0.000003 -0.000002
                            CHANNELS 3 Zrotation Xrotation Yrotation
                            JOINT RightHandThumb1
                            {
                                OFFSET -2.121970 -2.411331 3.375859
                                CHANNELS 3 Zrotation Xrotation Yrotation
                                JOINT RightHandThumb2
                                {
                                    OFFSET -2.803209 -0.000004 0.000004
                                    CHANNELS 3 Zrotation Xrotation Yrotation
                                    JOINT RightHandThumb3
                                    {
                                        OFFSET -2.395928 0.000004 -0.000003
                                        CHANNELS 3 Zrotation Xrotation Yrotation
                                        End Site
                                        {
                                            OFFSET -2.127676 0.000000 0.000000
                                        }
                                    }
                                }
                            }
                            JOINT RightHandIndex1
                            {
                                OFFSET -8.680779 0.000001 3.375859
                                CHANNELS 3 Zrotation Xrotation Yrotation
                                JOINT RightHandIndex2
                                {
                                    OFFSET -4.218179 0.000003 -0.000001
                                    CHANNELS 3 Zrotation Xrotation Yrotation
                                    JOINT RightHandIndex3
                                    {
                                        OFFSET -2.109090 -0.000002 0.000000
                                        CHANNELS 3 Zrotation Xrotation Yrotation
                                        End Site
                                        {
                                            OFFSET -1.872952 0.000000 0.000000
                                        }
                                    }
                                }
                            }
                            JOINT RightHandMiddle1
                            {
                                OFFSET -8.680779 -0.000002 1.118859
                                CHANNELS 3 Zrotation Xrotation Yrotation
                                JOINT RightHandMiddle2
                                {
                                    OFFSET -4.639998 0.000003 -0.000001
                                    CHANNELS 3 Zrotation Xrotation Yrotation
                                    JOINT RightHandMiddle3
                                    {
                                        OFFSET -2.530910 -0.000000 -0.000000
                                        CHANNELS 3 Zrotation Xrotation Yrotation
                                        End Site
                                        {
                                            OFFSET -2.247544 0.000000 0.000000
                                        }
                                    }
                                }
                            }
                            JOINT RightHandRing1
                            {
                                OFFSET -8.198519 -0.000004 -1.118859
                                CHANNELS 3 Zrotation Xrotation Yrotation
                                JOINT RightHandRing2
                                {
                                    OFFSET -4.218180 -0.000005 0.000000
                                    CHANNELS 3 Zrotation Xrotation Yrotation
                                    JOINT RightHandRing3
                                    {
                                        OFFSET -2.109090 0.000002 0.000002
                                        CHANNELS 3 Zrotation Xrotation Yrotation
                                        End Site
                                        {
                                            OFFSET -1.872952 0.000000 0.000000
                                        }
                                    }
                                }
                            }
                            JOINT RightHandPinky1
                            {
                                OFFSET -7.716249 0.000004 -3.375858
                                CHANNELS 3 Zrotation Xrotation Yrotation
                                JOINT RightHandPinky2
                                {
                                    OFFSET -3.374539 0.000003 -0.000000
                                    CHANNELS 3 Zrotation Xrotation Yrotation
                                    JOINT RightHandPinky3
                                    {
                                        OFFSET -1.687270 -0.000004 -0.000001
                                        CHANNELS 3 Zrotation Xrotation Yrotation
                                        End Site
                                        {
                                            OFFSET -1.498360 0.000000 0.000000
                                        }
                                    }
                                }
                            }
                        }
                    }
                }
            }
        }
    }
    JOINT LeftUpLeg
    {
        OFFSET 8.880377 0.000003 0.000001
        CHANNELS 3 Zrotation Xrotation Yrotation
        JOINT LeftLeg
        {
            OFFSET -0.000000 -40.387413 0.000001
            CHANNELS 3 Zrotation Xrotation Yrotation
            JOINT LeftFoot
            {
                OFFSET -0.000000 -36.911304 0.000000
                CHANNELS 3 Zrotation Xrotation Yrotation
                JOINT LeftToeBase
                {
                    OFFSET 0.000003 -5.772240 13.320597
                    CHANNELS 3 Zrotation Xrotation Yrotation
                    End Site
                    {
                        OFFSET 0.000000 0.000000 3.552151
                    }
                }
            }
        }
    }
    JOINT RightUpLeg
    {
        OFFSET -8.880380 -0.000003 -0.000001
        CHANNELS 3 Zrotation Xrotation Yrotation
        JOINT RightLeg
        {
            OFFSET 0.000001 -40.387405 0.000000
            CHANNELS 3 Zrotation Xrotation Yrotation
            JOINT RightFoot
            {
                OFFSET -0.000001 -36.911304 -0.000001
                CHANNELS 3 Zrotation Xrotation Yrotation
                JOINT RightToeBase
                {
                    OFFSET 0.000000 -5.772241 13.320600
                    CHANNELS 3 Zrotation Xrotation Yrotation
                    End Site
                    {
                        OFFSET 0.000000 0.000000 3.552151
                    }
                }
            }
        }
    }
}
MOTION
Frames: 4
Frame Time: 0.013889
-10.777744    78.372566    -28.985840    12.029197    -2.129935    -8.750609    0.052267    -7.485063    0.401220    6.556393    12.057214    -0.983875    -9.358312    -10.238873    9.778622    -1.848319    1.603069    11.480857    5.218544    6.711486    -1.711590    -14.771654    54.116817    -19.497423    -59.998547    21.689547    -102.045586    11.029810    -32.818562    2.332201    44.782608    20.791698    -51.247799    -17.234213    -2.291272    23.210886    -0.000000    0.000000    -0.000000    1.865420    17.991037    2.349911    1.774176    0.000007    -0.000005    1.774194    0.000000    0.000006    0.538063    8.999629    1.378966    0.531457    0.000002    -0.000000    0.531457    -0.000002    0.000003    -0.091037    -8.999991    3.622926    -0.089919    0.000000    0.000000    -0.089919    -0.000001    -0.000000    -0.747886    -17.998522    7.043231    -0.711286    0.000000    0.000000    -0.711289    0.000000    0.000000    2.751018    0.515803    4.506168    28.457790    20.254242    17.451387    73.452660    25.258932    97.225487    32.118927    -25.444563    -2.045763    -52.922859    17.235361    46.396389    0.810558    4.742572    -22.856480    -0.000000    0.000000    -0.000000    16.479540    17.305552    8.680771    15.713758    -0.000003    0.000004    15.713754    0.000004    0.000003    17.039911    8.610970    4.227447    16.842062    0.000000    -0.000000    16.842058    0.000007    -0.000002    17.609858    -8.584690    -3.019538    17.406221    -0.000003    0.000003    17.406218    0.000004    0.000002    18.831413    -17.094059    -5.739823    17.970369    -0.000007    0.000001    17.970367    0.000007    -0.000001    -14.349637    -33.261948    1.170841    0.000002    71.629875    -0.000001    0.785380    11.012387    5.734096    -0.000000    0.864224    0.000000    -19.041023    -19.764643    -20.734728    -0.000002    52.140701    0.000002    10.636441    -25.772329    18.479525    -0.000001    -2.919728    -0.000001    
-10.729786    78.314072    -28.982639    12.060683    -2.134274    -8.454661    0.038527    -7.440866    0.297494    6.698371    12.085466    -1.118287    -9.062095    -10.231848    9.785708    -1.681675    1.645980    11.439322    5.341112    6.678774    -1.763288    -14.269918    54.024193    -19.895367    -60.309170    22.124113    -102.119476    11.900629    -31.992897    2.673890    44.578693    21.257317    -50.789997    -17.365303    -2.347435    23.205576    -0.000000    0.000000    -0.000000    1.509993    17.994108    3.281397    1.436132    0.000000    0.000001    1.436122    -0.000003    -0.000002    0.658513    8.999421    1.770966    0.650420    -0.000000    -0.000000    0.650430    0.000000    0.000004    0.260767    -8.999915    3.239962    0.257572    -0.000001    0.000003    0.257562    -0.000001    -0.000002    -0.142261    -17.999901    6.354388    -0.135293    -0.000000    -0.000001    -0.135289    0.000001    0.000001    3.093041    0.581123    4.561750    28.622305    20.483051    17.251974    73.676353    24.716539    96.981529    32.747887    -25.273909    -2.004789    -52.895706    17.210688    46.453896    0.868743    4.718130    -22.861294    -0.000000    0.000000    -0.000000    17.024105    17.259056    9.073409    16.235809    0.000003    -0.000000    16.235806    0.000006    -0.000004    17.530624    8.588391    4.431281    17.327782    0.000003    -0.000004    17.327778    0.000009    -0.000009    18.082151    -8.562266    -2.997545    17.873775    -0.000003    0.000003    17.873772    0.000011    0.000003    19.299124    -17.048704    -5.699342    18.419765    0.000011    0.000007    18.419764    -0.000004    -0.000001    -14.660344    -33.403797    0.880980    0.000003    71.773468    -0.000002    0.649369    10.909863    5.563091    0.000000    0.859489    -0.000000    -19.240313    -19.746729    -21.020212    -0.000001    52.380005    0.000003    10.653604    -25.862038    18.466936    0.000000    -3.097685    -0.000000    
-10.646382    78.245377    -28.977785    12.116733    -2.155456    -8.087725    0.024113    -7.409481    0.187011    6.924272    12.112031    -1.277128    -8.746414    -10.150664    9.830885    -1.510360    1.766618    11.420380    5.427344    6.594518    -1.840551    -13.488726    53.857365    -20.555910    -60.741844    22.405012    -102.053146    12.011845    -31.590967    2.885466    44.567677    21.547163    -50.309277    -17.339149    -2.336228    23.206642    -0.000000    0.000000    -0.000000    0.834192    17.998171    4.460258    0.793372    0.000003    0.000001    0.793380    -0.000000    -0.000002    0.656169    8.999421    2.256372    0.648091    0.000002    -0.000002    0.648098    -0.000002    0.000001    0.582625    -8.999547    2.505966    0.575436    -0.000003    -0.000001    0.575463    0.000001    0.000002    0.528677    -17.999241    4.993025    0.502812    0.000000    0.000001    0.502815    0.000001    -0.000008    3.442862    0.709061    4.629488    28.768295    20.801458    16.992937    73.950325    24.006279    96.675568    33.362896    -24.939650    -2.139394    -52.849232    17.168535    46.552238    0.959072    4.680164    -22.868690    -0.000000    0.000000    -0.000000    17.734156    17.196188    9.548271    16.916910    -0.000000    -0.000002    16.916912    -0.000008    -0.000004    18.181719    8.557476    4.676796    17.972343    -0.000003    0.000002    17.972343    -0.000008    -0.000005    18.714706    -8.531345    -2.972672    18.500071    -0.000000    -0.000002    18.500082    -0.000003    0.000002    19.931553    -16.985620    -5.652541    19.027794    -0.000001    -0.000008    19.027800    0.000004    0.000003    -15.115533    -33.529053    0.465451    -0.000003    71.868523    0.000004    0.488528    10.807893    5.322925    0.000000    0.890822    -0.000001    -19.524752    -19.722559    -21.347603    -0.000002    52.692825    0.000002    10.670055    -25.951025    18.473206    -0.000001    -3.303155    0.000004    
-10.569397    78.194420    -28.973801    12.166862    -2.176197    -7.819868    0.014117    -7.381942    0.109876    7.081128    12.153193    -1.390784    -8.500301    -10.092317    9.826714    -1.383692    1.844895    11.367291    5.484389    6.495492    -1.833866    -12.984665    53.657207    -21.084597    -60.994217    22.513674    -101.985817    12.108010    -31.490847    3.238269    44.479630    21.747944    -50.097225    -17.340361    -2.336749    23.206606    -0.000000    0.000000    -0.000000    0.454649    17.999422    5.124315    0.432418    0.000000    0.000000    0.432410    0.000002    -0.000000    0.677727    8.999387    2.526392    0.669370    -0.000003    0.000000    0.669380    -0.000000    -0.000001    0.797682    -8.999150    1.968060    0.787865    0.000002    -0.000003    0.787868    0.000002    0.000001    0.952986    -17.997627    3.981033    0.906344    0.000000    0.000001    0.906351    -0.000000    -0.000001    3.675451    0.788960    4.630170    28.910845    21.000652    16.812384    74.066025    23.529455    96.502365    33.448982    -24.650375    -2.324742    -52.819084    17.141294    46.615921    1.030547    4.650109    -22.874508    -0.000000    0.000000    -0.000000    18.228594    17.150915    9.866310    17.391470    -0.000004    -0.000001    17.391460    -0.000005    -0.000009    18.645048    8.534799    4.839954    18.431105    0.000004    0.000003    18.431089    -0.000013    0.000002    19.169992    -8.508457    -2.949610    18.950897    -0.000009    -0.000012    18.950901    0.000000    0.000000    20.391991    -16.938452    -5.606991    19.470707    -0.000006    -0.000012    19.470722    0.000001    0.000005    -15.491652    -33.584564    0.110848    0.000004    71.869072    -0.000005    0.425649    10.739460    5.091285    0.000000    0.893099    -0.000000    -19.739082    -19.701281    -21.558825    0.000005    52.899380    -0.000006    10.610847    -25.955349    18.456196    0.000000    -3.390639    -0.000002    
